# Blender 4.3.2
# www.blender.org
mtllib box.mtl
o Box.01
v 1.232386 0.004883 -1.126817
v 1.220640 0.016732 -1.114873
v 1.231698 2.347431 -1.131815
v 1.219558 2.338315 -1.119840
v 1.143603 -0.008759 1.112164
v 1.132315 0.003042 1.100655
v 1.230584 2.335100 1.198743
v 1.218917 2.325996 1.186540
v -1.113179 0.004883 -1.126817
v -1.101433 0.016732 -1.114881
v -1.112485 2.347147 -1.131816
v -1.100313 2.336301 -1.119843
v -1.024396 -0.008759 1.112164
v -1.013108 0.003042 1.100655
v -1.099675 2.324059 1.186476
v -1.111371 2.334815 1.198733
v 0.059604 0.030372 1.094540
v 0.059604 0.018663 1.105892
v 0.059604 2.292854 1.160809
v 0.059604 2.292468 1.172534
v 0.059606 0.007585 -1.095088
v 0.059604 -0.004168 -1.106804
v 0.086166 2.284379 -1.095688
v 0.086164 2.284365 -1.107421
v 0.063665 2.628279 -1.198367
v 0.066516 2.639657 -1.198306
v 0.063479 2.615948 1.131750
v 0.066331 2.627326 1.131811
v -0.435541 2.390647 -1.216360
v -0.436488 2.402339 -1.216299
v -0.435356 2.378316 1.113757
v -0.436303 2.390008 1.113819
vn 0.0204 0.9213 -0.3884
vn -0.0410 0.9396 0.3397
vn -0.0233 0.9429 -0.3322
vn 0.0359 0.9158 0.4000
vn -0.9700 0.2431 0.0012
vn -0.0621 -0.4673 -0.8819
vn -0.1535 -0.4252 0.8920
vn 0.9967 0.0808 0.0003
vn 0.1397 -0.4148 0.8991
vn -0.0756 -0.5000 -0.8627
vn 0.9996 -0.0187 0.0196
vn -0.9996 0.0187 -0.0196
vn 0.0142 -0.0329 0.9994
vn -0.0142 0.0329 -0.9994
vn -0.9996 -0.0187 0.0196
vn 0.9996 0.0187 -0.0196
vn -0.0191 -0.0011 -0.9998
vn 0.0191 0.0011 0.9998
vn 0.0081 -1.0000 0.0019
vn -0.0081 1.0000 -0.0019
vn -0.0081 -1.0000 0.0019
vn 0.0081 1.0000 -0.0019
vn 0.0187 -0.0013 -0.9998
vn -0.0187 0.0013 0.9998
vn -0.0142 -0.0329 0.9994
vn 0.0142 0.0329 -0.9994
vn -0.2431 -0.9700 -0.0052
vn 0.2431 0.9700 0.0052
vn 0.0808 -0.9967 -0.0053
vn -0.0808 0.9967 0.0053
vt 0.245162 0.622367
vt 0.247910 0.499012
vt 0.249223 0.497745
vt 0.246422 0.622367
vt 0.491078 0.619890
vt 0.493693 0.499470
vt 0.494984 0.498198
vt 0.492339 0.619890
vt 0.247915 0.745588
vt 0.249223 0.746809
vt 0.493693 0.746182
vt 0.494984 0.747500
vt 0.496242 0.746058
vt 0.496242 0.498198
vt 0.497486 0.498198
vt 0.497486 0.746057
vt 0.498948 0.498198
vt 0.498948 0.626072
vt 0.497486 0.625083
vt 0.497704 0.498206
vt 0.500377 0.498198
vt 0.500377 0.625558
vt 0.499130 0.625574
vt 0.498948 0.499138
vt 0.494984 0.746058
vt 0.496242 0.746058
vt 0.498906 0.626097
vt 0.498906 0.698017
vt 0.497486 0.696860
vt 0.497659 0.626072
vt 0.500420 0.625574
vt 0.500420 0.698008
vt 0.499176 0.697991
vt 0.498948 0.626704
vt 0.258436 0.000061
vt 0.499056 0.000000
vt 0.500921 0.249083
vt 0.250461 0.249083
vt 0.740892 0.000000
vt 0.748783 0.247067
vt 0.500921 0.247067
vt 0.502793 0.000958
vt 0.250489 0.488909
vt 0.253283 0.373606
vt 0.495823 0.373646
vt 0.500769 0.498198
vt 0.000189 0.507877
vt 0.245162 0.497745
vt 0.242176 0.621097
vt 0.003098 0.621957
vt 0.001859 0.249427
vt 0.242479 0.249998
vt 0.250460 0.497745
vt 0.000000 0.497745
vt 0.746766 0.249540
vt 0.748625 0.496175
vt 0.500769 0.496175
vt 0.508666 0.249083
vt 0.249593 0.000000
vt 0.250461 0.124764
vt 0.007509 0.122023
vt 0.000823 0.000147
vt 0.747196 0.743175
vt 0.500769 0.743175
vt 0.505994 0.622619
vt 0.747736 0.619680
vt 0.252613 0.622804
vt 0.490399 0.622920
vt 0.491078 0.738010
vt 0.250461 0.747489
vt 0.983705 0.619631
vt 0.985835 0.743126
vt 0.747736 0.733718
vt 0.748403 0.619695
vt 0.250461 0.498198
vt 0.491078 0.507591
vt 0.985835 0.496175
vt 0.747737 0.505554
vt 0.248739 0.249427
vt 0.000000 0.249427
vt 0.500775 0.496409
vt 0.746989 0.496175
vt 0.250461 0.258299
vt 0.500769 0.249083
vt 0.245162 0.744304
vt 0.000000 0.736023
vt 0.874610 0.000000
vt 1.000000 0.008389
vt 1.000000 0.253722
vt 0.874659 0.247858
vt 0.748783 0.255029
vt 0.748883 0.007169
vt 0.874609 0.000000
vt 0.874609 0.247906
vt 0.820304 0.750841
vt 0.891402 0.743126
vt 0.891402 0.988452
vt 0.820255 0.998699
vt 0.747836 0.990985
vt 0.747736 0.743126
vt 0.820255 0.752095
vt 0.820255 1.000000
s 1
usemtl Box_1
f 19/1/1 15/2/1 16/3/1 20/4/1
f 23/5/2 4/6/2 3/7/2 24/8/2
f 8/9/3 19/1/3 20/4/3 7/10/3
f 12/11/4 23/5/4 24/8/4 11/12/4
f 25/13/5 27/14/5 28/15/5 26/16/5
f 26/17/6 3/18/6 4/19/6 25/20/6
f 7/21/7 28/22/7 27/23/7 8/24/7
f 31/25/8 29/7/8 30/14/8 32/26/8
f 32/27/9 16/28/9 15/29/9 31/30/9
f 11/31/10 30/32/10 29/33/10 12/34/10
f 5/35/11 1/36/11 3/37/11 7/38/11
f 6/39/12 8/40/12 4/41/12 2/42/12
f 13/43/13 18/44/13 20/45/13 16/46/13
f 14/47/14 15/48/14 19/49/14 17/50/14
f 9/51/15 13/52/15 16/53/15 11/54/15
f 10/55/16 12/56/16 15/57/16 14/58/16
f 1/59/17 22/60/17 24/61/17 3/62/17
f 2/63/18 4/64/18 23/65/18 21/66/18
f 22/67/19 18/68/19 13/69/19 9/70/19
f 21/71/20 10/72/20 14/73/20 17/74/20
f 1/75/21 5/76/21 18/68/21 22/67/21
f 2/77/22 21/71/22 17/74/22 6/78/22
f 22/60/23 9/79/23 11/80/23 24/61/23
f 21/66/24 23/65/24 12/81/24 10/82/24
f 18/44/25 5/83/25 7/84/25 20/45/25
f 17/50/26 19/49/26 8/85/26 6/86/26
f 25/87/27 4/88/27 8/89/27 27/90/27
f 26/91/28 28/92/28 7/93/28 3/94/28
f 31/95/29 15/96/29 12/97/29 29/98/29
f 32/99/30 30/100/30 11/101/30 16/102/30
