# Blender 4.3.2
# www.blender.org
mtllib untitled.mtl
o Object003
v 0.022188 0.523247 -0.039012
v 0.027032 0.522796 -0.042873
v 0.027719 0.521705 -0.048949
v 0.023845 0.520615 -0.053681
v 0.017681 0.520163 -0.054296
v 0.012837 0.520615 -0.050435
v 0.012151 0.521705 -0.044359
v 0.016024 0.522796 -0.039627
v 0.026554 0.547421 -0.044494
v 0.021721 0.547292 -0.040595
v 0.027213 0.547731 -0.050663
v 0.023313 0.548042 -0.055486
v 0.017137 0.548170 -0.056140
v 0.012305 0.548042 -0.052240
v 0.011645 0.547731 -0.046072
v 0.015546 0.547421 -0.041248
v 0.027782 0.571718 -0.040330
v 0.022920 0.571017 -0.036529
v 0.028511 0.573411 -0.046261
v 0.024680 0.575104 -0.050848
v 0.018534 0.575806 -0.051404
v 0.013672 0.575104 -0.047602
v 0.012943 0.573411 -0.041671
v 0.016774 0.571718 -0.037084
v 0.019935 0.521705 -0.046654
v 0.025423 0.591270 -0.028041
v 0.030345 0.592460 -0.031637
v 0.031220 0.595333 -0.037074
v 0.024043 0.598540 -0.032720
v 0.027535 0.598206 -0.041166
v 0.021449 0.599396 -0.041517
v 0.016527 0.598206 -0.037920
v 0.015652 0.595333 -0.032484
v 0.019337 0.592460 -0.028391
v 0.051226 0.624457 -0.299501
v 0.048893 0.624005 -0.305239
v 0.043259 0.622915 -0.307616
v 0.037625 0.621824 -0.305239
v 0.035291 0.621372 -0.299501
v 0.037625 0.621824 -0.293762
v 0.043259 0.622915 -0.291385
v 0.048893 0.624005 -0.293762
v 0.047202 0.648630 -0.305239
v 0.049576 0.648501 -0.299501
v 0.041472 0.648941 -0.307616
v 0.035742 0.649251 -0.305239
v 0.033369 0.649380 -0.299501
v 0.035742 0.649251 -0.293762
v 0.041472 0.648941 -0.291385
v 0.047202 0.648630 -0.293762
v 0.051544 0.672928 -0.305239
v 0.053815 0.672227 -0.299501
v 0.046061 0.674621 -0.307616
v 0.040578 0.676314 -0.305239
v 0.038307 0.677015 -0.299501
v 0.040578 0.676314 -0.293762
v 0.046061 0.674621 -0.291385
v 0.051544 0.672928 -0.293762
v 0.043259 0.622915 -0.299501
v 0.062664 0.692479 -0.299501
v 0.060607 0.693669 -0.305239
v 0.055639 0.696542 -0.307616
v 0.057786 0.699749 -0.299501
v 0.050672 0.699416 -0.305239
v 0.048614 0.700606 -0.299501
v 0.050672 0.699416 -0.293762
v 0.055639 0.696542 -0.291385
v 0.060607 0.693669 -0.293762
v 0.253039 0.824177 -0.166525
v 0.247016 0.823725 -0.165074
v 0.243825 0.822634 -0.159858
v 0.245334 0.821544 -0.153933
v 0.250660 0.821092 -0.150769
v 0.256683 0.821544 -0.152220
v 0.259874 0.822634 -0.157436
v 0.258364 0.823725 -0.163361
v 0.246764 0.848350 -0.163403
v 0.252792 0.848221 -0.164894
v 0.243558 0.848660 -0.158092
v 0.245053 0.848971 -0.152072
v 0.250373 0.849099 -0.148868
v 0.256402 0.848971 -0.150359
v 0.259607 0.848660 -0.155670
v 0.258112 0.848350 -0.161690
v 0.247412 0.872647 -0.167696
v 0.253425 0.871946 -0.169085
v 0.244243 0.874341 -0.162629
v 0.245775 0.876034 -0.156853
v 0.251110 0.876735 -0.153751
v 0.257124 0.876034 -0.155140
v 0.260292 0.874341 -0.160207
v 0.258760 0.872647 -0.165983
v 0.251850 0.822634 -0.158647
v 0.254746 0.892199 -0.177835
v 0.248765 0.893389 -0.176657
v 0.245673 0.896262 -0.172100
v 0.254018 0.899469 -0.173012
v 0.247282 0.899135 -0.166834
v 0.252649 0.900325 -0.163943
v 0.258630 0.899135 -0.165121
v 0.261722 0.896262 -0.169678
v 0.260113 0.893389 -0.174944
v -0.019853 0.034232 -0.442305
v 0.153833 0.705535 -0.368249
v 0.049016 0.053278 0.088737
v 0.367937 0.024324 -0.194921
v -0.080724 0.518407 0.006220
v 0.377287 0.918781 -0.203293
v -0.387873 -0.071569 -0.006543
v 0.426775 -0.061835 -0.519772
v -0.087142 0.053255 -0.199170
v 0.138425 0.706252 -0.223759
v 0.614457 -0.077372 0.081782
v -0.095349 -0.060407 0.289936
v 0.321842 0.888321 -0.052451
v 0.125228 0.583077 0.028979
v -0.007298 0.593916 -0.173539
v -0.204563 -0.073678 -0.523959
v 0.139379 0.884562 -0.229288
v 0.161168 0.044674 -0.274075
v -0.036063 0.638795 -0.416585
v 0.132037 0.861894 -0.071983
v 0.154977 0.049486 -0.033314
v 0.289433 0.472217 -0.287219
v -0.098081 0.252875 0.039417
v -0.085371 0.682920 -0.256328
v -0.417624 -0.054993 -0.240909
v -0.134177 0.033573 -0.075553
v 0.262490 -0.076089 -0.601237
v 0.260225 0.827890 -0.214223
v 0.137671 0.606779 -0.080942
v 0.100649 -0.075943 0.321833
v 0.339624 0.014105 -0.028395
v 0.471870 -0.069399 0.235803
v -0.078993 0.340838 -0.391230
v 0.029368 0.635076 -0.263220
v -0.084813 0.331728 -0.250587
v 0.068732 0.580479 -0.445539
v -0.015569 0.585745 0.073117
v 0.573052 -0.075684 -0.157611
v -0.107294 0.351456 -0.102391
v 0.381766 0.595270 -0.129435
v -0.342411 -0.001064 -0.036382
v -0.026942 0.323148 0.097471
v -0.175698 0.003902 -0.332808
v 0.210786 0.891051 -0.281660
v 0.019944 0.002566 0.251772
v 0.230989 0.663548 -0.016329
v 0.311149 -0.057270 0.226098
v 0.041742 0.520779 0.004597
v 0.065334 0.048342 -0.429294
v -0.035518 0.017455 0.111671
v 0.146871 0.334956 -0.391954
v -0.098467 0.587911 -0.086522
v -0.009362 0.689744 -0.180486
v -0.008387 0.313971 -0.169488
v -0.107883 0.086178 -0.308978
v 0.024197 -0.032946 -0.587670
v 0.162643 0.050911 -0.335750
v 0.376036 0.425274 -0.190612
v 0.479372 -0.070290 -0.337591
v 0.198363 0.055186 -0.006697
v 0.118591 0.610359 -0.191494
v -0.081741 0.087479 -0.143492
v 0.559729 -0.040796 -0.153206
v 0.320163 0.008569 -0.268181
v 0.056525 0.569091 0.081475
v -0.113783 0.097042 -0.012138
v -0.432227 -0.038892 -0.156651
v -0.239219 -0.044635 0.143030
v -0.267444 -0.057008 -0.479039
v 0.056883 0.671906 -0.426986
v 0.075820 0.204512 -0.434259
v 0.231804 0.466806 -0.296381
v 0.265518 0.831285 -0.111502
v -0.124736 0.020373 -0.155903
v -0.000679 0.526844 -0.110958
v 0.065437 0.166389 0.080601
v 0.182415 0.021528 0.031019
v 0.458759 -0.100898 -0.140015
v 0.163676 0.694194 -0.254914
v -0.106549 -0.023917 0.237382
v 0.190711 0.005393 -0.419815
v -0.191066 0.034615 -0.108823
v -0.006527 0.212126 -0.437647
v -0.011032 0.445522 -0.436416
v 0.076706 0.629471 -0.305435
v 0.364431 0.024086 -0.125760
v 0.272675 -0.078679 0.229208
v 0.230204 0.080899 -0.285764
v 0.105913 0.858548 -0.134840
v -0.036878 0.178166 0.079093
v 0.328831 0.920970 -0.231136
v 0.439107 -0.098119 -0.460960
v 0.346786 0.644154 -0.249902
v 0.061110 0.015210 0.138784
v 0.079950 -0.011273 -0.501571
v 0.607184 -0.047521 0.055029
v -0.248064 -0.013845 -0.397330
v 0.150619 0.195882 -0.059492
v 0.325378 0.084291 -0.044180
v -0.032981 0.042237 -0.175606
v -0.421917 -0.073652 -0.175252
v 0.402903 -0.084145 -0.544032
v -0.069546 -0.080119 0.281381
v 0.271719 0.904935 -0.255408
v -0.412466 -0.049126 -0.006201
v -0.033222 -0.001455 -0.481865
v 0.085617 0.581435 -0.104696
v -0.147516 0.014934 0.009969
v 0.224052 0.013732 -0.340839
v 0.197801 0.877425 -0.038348
v 0.080817 0.649927 -0.250978
v 0.161393 0.533065 -0.369310
v 0.263670 -0.095673 -0.578918
v 0.322104 0.070948 -0.247359
v -0.110048 0.460435 -0.021727
v 0.148135 0.584007 -0.051864
v -0.068848 0.284744 0.050733
v 0.347255 -0.002483 0.088646
v -0.093496 0.225487 -0.227468
v 0.372331 0.910912 -0.128298
v 0.325771 0.695816 -0.047982
v -0.235178 -0.032229 -0.504322
v 0.578555 -0.101622 -0.054692
v 0.114900 0.707050 -0.396548
v 0.311484 0.267863 -0.270405
v 0.271072 0.895768 -0.031496
v 0.073574 0.510288 -0.427058
v 0.556174 -0.098285 0.106728
v -0.090380 0.671278 -0.307915
v 0.123079 0.694855 -0.199183
v 0.050190 0.608417 -0.167609
v 0.024749 -0.078058 -0.581534
v 0.340318 -0.061893 -0.576996
v -0.113424 0.198571 -0.074529
v -0.058155 0.285524 -0.384610
v -0.058903 0.557706 0.059809
v 0.387041 0.273813 -0.198885
v 0.317621 -0.023730 0.180097
v 0.279666 0.891960 -0.277812
v -0.309960 -0.017452 0.035059
v -0.148186 0.000391 0.141099
v 0.429287 -0.090472 0.206688
v 0.117421 0.216958 0.032424
v -0.014003 0.651438 -0.385076
v 0.298225 0.845790 -0.177957
v -0.010535 0.080402 -0.429061
v -0.112050 0.329206 -0.019475
v -0.076208 0.114465 -0.218325
v 0.495869 -0.024291 -0.069896
v 0.068612 0.569723 0.047536
v -0.238437 0.007792 -0.140443
v 0.454526 -0.079283 -0.479346
v 0.391402 -0.001192 -0.195463
v -0.034069 0.074099 0.086776
v 0.072719 0.528182 -0.023254
v 0.169632 0.458097 -0.255179
v 0.169426 -0.084329 -0.511744
v -0.162402 -0.071115 0.236613
v -0.343257 -0.004437 -0.202149
v 0.090076 -0.044914 0.317531
v -0.135725 0.027313 -0.317478
v -0.010883 0.281718 0.086773
v 0.124236 0.622285 -0.129906
v 0.369647 0.775219 -0.192375
v 0.137672 0.697437 -0.280003
v -0.333947 -0.052111 -0.347791
v 0.367609 0.732642 -0.094577
v 0.246290 0.064426 -0.027127
v -0.341090 -0.071331 -0.311987
v 0.167482 0.631309 -0.338894
v -0.065622 0.082666 -0.376869
v 0.157176 0.869475 -0.199373
v -0.059590 0.673112 -0.213447
v -0.070980 0.686336 -0.286727
v 0.031658 0.681195 -0.218232
v 0.115673 0.040099 0.035038
v -0.086467 0.318380 -0.336557
v -0.280508 -0.066016 0.106138
v 0.113900 0.592704 -0.002807
v 0.448031 -0.047489 -0.352907
v -0.074700 0.231434 -0.144533
v 0.005560 0.033681 0.091108
v -0.087871 0.453413 -0.129340
v 0.022860 -0.056245 -0.597165
v -0.052419 0.535494 -0.041133
v -0.045074 0.292599 -0.201302
v 0.196271 -0.052470 -0.578438
v -0.092095 0.041100 -0.163309
v 0.010158 0.548072 -0.431721
v 0.211217 -0.053212 0.254947
v -0.112209 0.207968 -0.004996
v 0.167503 0.596273 -0.054487
v -0.374296 -0.028179 -0.259331
v 0.325612 0.901789 -0.090165
v 0.232154 0.540421 -0.284446
v 0.462121 -0.045941 0.222035
v 0.060337 0.235482 0.094289
v 0.344707 0.923575 -0.171191
v -0.081350 0.019478 0.053167
v 0.212141 0.828800 -0.188569
v -0.098768 0.035040 -0.247016
v -0.008500 0.155416 -0.173168
v 0.525469 -0.093312 -0.216173
v 0.163923 0.517051 -0.302482
v -0.009145 0.387121 0.089463
v 0.564548 -0.049844 -0.115206
v -0.063248 0.604738 -0.385634
v 0.206210 0.899241 -0.250898
v -0.075313 0.409245 -0.225754
v 0.325084 -0.095004 0.180848
v -0.245785 -0.002875 0.055942
v 0.014036 -0.088545 0.180903
v -0.007157 0.638142 -0.309154
v 0.063027 0.693747 -0.179511
v 0.121608 0.561427 -0.393588
v -0.033878 0.678709 -0.238990
v 0.110021 0.822831 -0.103618
v 0.263472 -0.020384 -0.493172
v 0.375728 0.162564 -0.188560
v 0.323330 0.137018 -0.265605
v 0.018612 0.023539 -0.437580
v 0.098814 0.010927 -0.438173
v -0.103782 0.042115 -0.105864
v -0.074717 0.589742 -0.128798
v -0.077945 0.391133 0.032997
v 0.075351 0.437792 0.080020
v -0.016087 0.528981 0.004895
v 0.188026 0.132117 -0.034459
v 0.226107 0.824366 -0.137096
v 0.467011 -0.090590 -0.353330
v -0.194761 -0.013997 0.092864
v 0.102753 0.695341 -0.221648
v -0.007877 0.582612 -0.146338
v -0.058486 0.371816 -0.406758
v -0.012403 0.520159 0.087016
v 0.116167 0.851738 -0.186973
v 0.518198 -0.034913 0.004288
v -0.410579 -0.031502 -0.074821
vn 0.2822 0.0685 0.9569
vn 0.8862 0.0476 0.4608
vn 0.8881 -0.0374 0.4580
vn 0.2824 -0.0541 0.9578
vn 0.9503 -0.0020 -0.3115
vn 0.9503 0.0016 -0.3113
vn 0.4573 -0.0496 -0.8879
vn 0.4605 0.0391 -0.8868
vn -0.2822 -0.0685 -0.9569
vn -0.2825 0.0541 -0.9578
vn -0.8659 -0.0496 -0.4978
vn -0.8680 0.0390 -0.4951
vn -0.9672 -0.0021 0.2539
vn -0.9672 0.0016 0.2541
vn -0.4945 0.0475 0.8679
vn -0.4975 -0.0374 0.8667
vn 0.8796 -0.2008 0.4313
vn 0.2707 -0.2900 0.9180
vn 0.9510 0.0082 -0.3090
vn 0.4697 0.2091 -0.8577
vn -0.2706 0.2903 -0.9179
vn -0.8599 0.2091 -0.4656
vn -0.9665 0.0082 0.2564
vn -0.5048 -0.2008 0.8395
vn 0.0538 -0.9818 0.1823
vn 0.0537 -0.9818 0.1823
vn 0.0538 -0.9818 0.1822
vn 0.0537 -0.9818 0.1822
vn 0.2091 0.6734 0.7091
vn 0.1416 0.8657 0.4802
vn 0.4173 0.8284 0.3736
vn 0.1458 0.8568 0.4946
vn 0.1416 0.8656 0.4803
vn 0.0654 0.9729 0.2218
vn 0.1417 0.8656 0.4803
vn -0.1478 0.8284 0.5403
vn 0.1416 0.8657 0.4801
vn 0.8697 -0.2783 0.4077
vn 0.2592 -0.4004 0.8789
vn 0.9517 0.0110 -0.3070
vn 0.4759 0.2893 -0.8306
vn -0.2592 0.4004 -0.8789
vn -0.8504 0.2893 -0.4394
vn -0.9659 0.0110 0.2585
vn -0.5093 -0.2783 0.8143
vn 0.9977 0.0685 -0.0000
vn 0.6927 0.0476 -0.7197
vn 0.6905 -0.0374 -0.7224
vn 0.9985 -0.0541 -0.0000
vn -0.0300 -0.0021 -0.9995
vn -0.0298 0.0016 -0.9996
vn -0.7223 -0.0496 -0.6898
vn -0.7204 0.0390 -0.6925
vn -0.9977 -0.0685 -0.0001
vn -0.9985 0.0541 -0.0000
vn -0.7223 -0.0496 0.6898
vn -0.7204 0.0390 0.6924
vn -0.0300 -0.0021 0.9995
vn -0.0298 0.0016 0.9996
vn 0.6927 0.0475 0.7197
vn 0.6905 -0.0374 0.7223
vn 0.6624 -0.2008 -0.7217
vn 0.9570 -0.2900 -0.0000
vn -0.0274 0.0082 -0.9996
vn -0.6899 0.2091 -0.6931
vn -0.9569 0.2903 -0.0000
vn -0.6899 0.2091 0.6931
vn -0.0274 0.0082 0.9996
vn 0.6625 -0.2008 0.7217
vn 0.1900 -0.9818 -0.0000
vn 0.1901 -0.9818 -0.0000
vn 0.7393 0.6734 -0.0000
vn 0.5006 0.8657 0.0001
vn 0.4765 0.8284 -0.2946
vn 0.5157 0.8568 -0.0000
vn 0.5009 0.8655 0.0001
vn 0.2314 0.9729 -0.0000
vn 0.5009 0.8655 -0.0001
vn 0.4765 0.8284 0.2946
vn 0.5006 0.8657 -0.0001
vn 0.6370 -0.2783 -0.7188
vn 0.9163 -0.4004 -0.0000
vn -0.0253 0.0110 -0.9996
vn -0.6620 0.2893 -0.6914
vn -0.9164 0.4004 -0.0000
vn -0.6620 0.2893 0.6914
vn -0.0253 0.0110 0.9996
vn 0.6371 -0.2784 0.7188
vn 0.1490 0.0685 -0.9865
vn -0.6083 0.0475 -0.7923
vn -0.6112 -0.0374 -0.7906
vn 0.1490 -0.0541 -0.9874
vn -0.9928 -0.0021 -0.1195
vn -0.9928 0.0016 -0.1197
vn -0.7899 -0.0496 0.6113
vn -0.7923 0.0391 0.6089
vn -0.1489 -0.0685 0.9865
vn -0.1490 0.0541 0.9874
vn 0.5742 -0.0496 0.8172
vn 0.5773 0.0390 0.8156
vn 0.9839 -0.0021 0.1788
vn 0.9839 0.0016 0.1786
vn 0.8150 0.0475 -0.5774
vn 0.8173 -0.0374 -0.5750
vn -0.6147 -0.2008 -0.7628
vn 0.1429 -0.2900 -0.9463
vn -0.9925 0.0082 -0.1221
vn -0.7883 0.2092 0.5787
vn -0.1429 0.2903 0.9462
vn 0.5824 0.2091 0.7856
vn 0.9843 0.0081 0.1763
vn 0.8125 -0.2008 -0.5473
vn 0.0284 -0.9818 -0.1880
vn 0.0284 -0.9818 -0.1879
vn 0.0283 -0.9818 -0.1879
vn 0.0284 -0.9818 -0.1878
vn 0.1103 0.6733 -0.7311
vn 0.0747 0.8657 -0.4950
vn -0.2202 0.8284 -0.5150
vn 0.0770 0.8568 -0.5099
vn 0.0748 0.8656 -0.4951
vn 0.0345 0.9729 -0.2286
vn 0.0747 0.8656 -0.4951
vn 0.3625 0.8284 -0.4271
vn -0.6157 -0.2783 -0.7372
vn 0.1368 -0.4004 -0.9061
vn -0.9922 0.0111 -0.1242
vn -0.7824 0.2893 0.5514
vn -0.1367 0.4004 0.9061
vn 0.5848 0.2893 0.7578
vn 0.9847 0.0110 0.1741
vn 0.8059 -0.2783 -0.5226
vn -0.1239 0.0068 0.9923
vn 0.2091 0.2759 0.9382
vn 0.6218 0.0999 0.7768
vn -0.4867 0.7475 -0.4520
vn -0.5682 0.4873 0.6632
vn -0.7831 0.0189 -0.6216
vn -0.3975 -0.8827 0.2508
vn -0.0929 -0.8746 -0.4759
vn -0.0559 -0.9974 -0.0463
vn 0.7738 0.0227 -0.6330
vn 0.7965 0.4851 -0.3609
vn 0.3401 -0.0331 -0.9398
vn -0.4587 0.1836 0.8694
vn -0.1162 0.1769 0.9774
vn -0.9011 0.1764 0.3961
vn -0.3763 0.8695 0.3199
vn -0.5144 0.6954 0.5018
vn -0.2074 0.0569 -0.9766
vn 0.0621 0.2386 -0.9691
vn 0.1119 0.0265 -0.9934
vn -0.9408 0.0045 0.3390
vn -0.8189 0.5727 0.0377
vn -0.9393 0.3164 0.1325
vn -0.2212 0.9441 0.2443
vn -0.0346 -0.9986 0.0394
vn 0.0426 -0.9988 -0.0222
vn 0.1209 0.9680 -0.2197
vn 0.0655 0.8561 -0.5127
vn 0.4004 0.8035 -0.4406
vn -0.9495 0.0270 0.3125
vn -0.8152 0.5190 -0.2571
vn -0.9852 -0.0237 -0.1700
vn -0.8412 0.1594 -0.5167
vn -0.4682 0.8276 -0.3097
vn -0.2968 0.9388 -0.1750
vn -0.0533 0.5239 -0.8501
vn 0.5214 0.5434 -0.6580
vn 0.9995 -0.0246 -0.0174
vn -0.8661 0.0872 -0.4922
vn 0.4696 0.8624 -0.1892
vn 0.4817 0.7293 -0.4859
vn 0.6391 0.7637 -0.0914
vn 0.1476 0.9758 0.1611
vn 0.7276 0.6838 0.0551
vn 0.2047 0.9788 -0.0081
vn 0.1033 0.9064 0.4096
vn 0.2463 0.7777 0.5784
vn -0.2400 0.9463 0.2164
vn -0.1842 0.8364 0.5162
vn -0.1109 0.9429 -0.3142
vn -0.1739 0.9717 0.1601
vn 0.5703 -0.0075 0.8214
vn 0.9744 0.0103 0.2246
vn -0.2242 -0.0643 0.9724
vn 0.3328 -0.0527 0.9415
vn 0.4415 0.0109 0.8972
vn -0.1397 0.9099 -0.3906
vn 0.0700 0.8603 0.5050
vn 0.2760 0.9162 0.2905
vn 0.3755 0.9265 -0.0254
vn -0.1119 0.9932 -0.0309
vn -0.0129 0.9870 -0.1601
vn -0.0513 0.5423 0.8386
vn -0.4720 0.5310 0.7037
vn -0.8244 0.5316 0.1944
vn -0.1175 0.9129 -0.3909
vn -0.0537 0.7165 -0.6955
vn -0.4745 0.6003 -0.6438
vn -0.2614 0.5373 -0.8019
vn -0.2322 0.0331 -0.9721
vn 0.6585 0.5402 -0.5241
vn 0.2509 0.8868 -0.3881
vn 0.5073 -0.0182 -0.8616
vn 0.5625 -0.0628 -0.8244
vn -0.3823 0.9194 0.0924
vn 0.1216 0.8548 -0.5044
vn 0.8623 0.0274 -0.5057
vn 0.3387 -0.0474 -0.9397
vn -0.5002 0.7010 0.5083
vn -0.6173 0.5828 0.5284
vn -0.2987 0.9515 0.0739
vn -0.3304 0.9381 0.1042
vn -0.6931 0.7137 0.1009
vn 0.1398 0.9548 0.2624
vn -0.0489 0.9033 0.4261
vn 0.7865 -0.0410 0.6163
vn 0.1956 0.5064 0.8399
vn 0.5907 0.6079 0.5305
vn 0.2377 0.4500 -0.8608
vn 0.7511 0.5846 -0.3067
vn 0.7375 0.0181 -0.6751
vn 0.9435 -0.0264 -0.3304
vn 0.9420 -0.0665 -0.3288
vn -0.8905 0.0162 -0.4547
vn -0.9728 0.0403 0.2280
vn -0.9769 0.0862 0.1955
vn -0.2205 0.0625 0.9734
vn -0.2198 0.0483 0.9743
vn 0.0768 0.7138 0.6961
vn -0.6928 0.3205 0.6460
vn -0.8084 -0.0046 0.5886
vn -0.2123 0.9647 -0.1556
vn -0.5433 0.8367 0.0693
vn -0.3133 0.9429 0.1132
vn -0.3374 -0.9098 -0.2416
vn -0.2385 0.9628 -0.1272
vn -0.2626 0.9646 -0.0222
vn -0.6997 0.7140 -0.0270
vn -0.7075 0.1628 -0.6877
vn -0.9929 0.0783 -0.0897
vn 0.3701 -0.9179 -0.1428
vn -0.1168 -0.9000 -0.4200
vn 0.1229 0.9579 -0.2596
vn 0.3361 0.4310 -0.8374
vn -0.0787 0.8279 0.5554
vn -0.3360 0.8818 -0.3311
vn -0.3130 0.8233 0.4736
vn 0.3318 0.8900 0.3126
vn 0.2694 0.8801 0.3910
vn 0.5565 0.4239 0.7146
vn 0.4351 0.0812 0.8967
vn -0.5210 0.7905 0.3220
vn -0.5887 0.8083 0.0009
vn -0.6201 -0.4387 0.6504
vn 0.9560 0.1737 0.2363
vn 0.5788 0.8125 -0.0693
vn 0.4463 0.8873 -0.1159
vn 0.4378 0.8284 0.3493
vn 0.0551 -0.9454 0.3211
vn 0.0008 -0.9900 0.1412
vn -0.5267 -0.0402 -0.8491
vn -0.2431 -0.0010 -0.9700
vn -0.8183 -0.1197 -0.5621
vn -0.8041 -0.0127 -0.5943
vn -0.9736 0.1881 -0.1293
vn -0.3172 0.9479 -0.0300
vn -0.2586 0.7295 0.6332
vn -0.2977 0.9260 -0.2320
vn -0.0556 0.8321 -0.5519
vn -0.8602 0.0612 0.5063
vn -0.7877 0.0741 0.6116
vn -0.6573 0.7466 -0.1029
vn -0.2285 0.5697 -0.7894
vn -0.4878 0.4816 -0.7281
vn -0.0983 0.5730 -0.8136
vn -0.1173 0.0224 -0.9928
vn -0.7007 0.7034 0.1199
vn -0.2601 0.9059 0.3343
vn -0.0074 0.9463 -0.3231
vn -0.7773 0.0318 0.6283
vn -0.7301 0.5931 0.3393
vn 0.2566 -0.9370 0.2369
vn -0.7613 0.4998 -0.4129
vn -0.5219 0.8414 -0.1403
vn -0.5741 0.8065 -0.1412
vn -0.9739 0.0312 -0.2248
vn 0.9927 -0.0257 -0.1180
vn 0.8906 0.0327 -0.4536
vn 0.9130 0.0209 0.4075
vn 0.7219 0.6104 0.3261
vn 0.5369 0.4762 0.6965
vn -0.5800 0.5983 0.5529
vn -0.6833 0.3800 0.6235
vn -0.8775 0.0838 0.4723
vn -0.3999 0.1861 0.8975
vn -0.4329 -0.0275 0.9010
vn -0.3341 0.9362 -0.1093
vn -0.7776 0.6075 0.1619
vn -0.0437 0.9692 0.2424
vn -0.6299 0.7228 -0.2843
vn -0.3301 0.8298 0.4499
vn -0.4352 0.0458 0.8992
vn 0.1312 0.5505 0.8245
vn 0.3529 0.5370 0.7662
vn -0.2461 0.9323 -0.2649
vn -0.3127 0.9417 0.1244
vn 0.0966 0.9177 -0.3854
vn -0.3335 0.1188 -0.9352
vn -0.3245 0.0407 -0.9450
vn -0.3081 0.8586 0.4098
vn -0.0195 0.6258 0.7798
vn 0.4222 -0.0589 0.9046
vn 0.6407 0.0299 -0.7672
vn 0.9645 0.0168 -0.2636
vn -0.5516 0.8198 0.1535
vn -0.7099 0.6629 0.2379
vn 0.2442 0.9245 -0.2926
vn -0.8398 0.0238 -0.5423
vn -0.6369 0.0471 0.7695
vn 0.0032 -0.0809 -0.9967
vn -0.1409 -0.0784 -0.9869
vn 0.5108 -0.4792 -0.7138
vn 0.1254 0.9298 0.3461
vn 0.5894 0.6124 0.5268
vn -0.6469 0.0292 -0.7620
vn 0.8823 -0.3639 -0.2985
vn 0.8996 0.2274 -0.3729
vn -0.9532 -0.0506 0.2979
vn -0.8940 0.4481 0.0022
vn -0.6170 -0.7855 -0.0490
vn -0.2000 0.9304 0.3071
vn -0.3667 0.8260 0.4282
vn -0.3328 -0.6147 -0.7151
vn -0.8087 -0.2288 -0.5418
vn 0.6503 0.6642 -0.3687
vn 0.3267 0.3800 -0.8654
vn 0.3366 0.0086 -0.9416
vn 0.1040 0.9861 -0.1293
vn 0.1534 0.7712 0.6178
vn 0.2587 0.4274 0.8663
vn -0.0393 0.5616 0.8265
vn 0.6573 -0.7433 -0.1245
vn 0.4257 -0.8875 -0.1766
vn 0.5060 -0.8553 -0.1113
vn -0.6866 0.5974 -0.4145
vn -0.9460 0.0942 -0.3103
vn -0.1331 0.9792 -0.1533
vn -0.3909 0.7614 -0.5172
vn 0.2551 -0.5642 0.7852
vn 0.4106 -0.1881 0.8922
vn 0.0597 0.5127 0.8565
vn 0.1719 -0.5190 0.8373
vn -0.6539 0.0869 0.7516
vn -0.7717 0.0399 0.6347
vn 0.9356 -0.0598 -0.3481
vn 0.0271 0.5918 -0.8056
vn 0.9012 -0.2409 0.3602
vn -0.6396 0.6747 0.3684
vn -0.8902 -0.0710 -0.4501
vn -0.1611 -0.8809 0.4449
vn 0.1277 0.9023 -0.4118
vn 0.5792 -0.0380 -0.8143
vn 0.8817 0.3476 -0.3191
vn 0.2255 -0.0049 -0.9742
vn 0.2392 0.9649 -0.1081
vn 0.2769 0.5902 0.7583
vn -0.1960 -0.0454 0.9796
vn -0.7967 -0.1514 -0.5851
vt 0.482611 0.936238
vt 0.481461 0.931061
vt 0.502577 0.927691
vt 0.503361 0.932909
vt 0.479880 0.925939
vt 0.501757 0.922549
vt 0.478331 0.920725
vt 0.500972 0.917447
vt 0.477264 0.915338
vt 0.500265 0.912324
vt 0.476878 0.909840
vt 0.499646 0.907181
vt 0.477017 0.904351
vt 0.499098 0.902027
vt 0.477235 0.898939
vt 0.498573 0.896825
vt 0.477034 0.893622
vt 0.498010 0.891572
vt 0.524198 0.924952
vt 0.524727 0.930211
vt 0.523734 0.919734
vt 0.523241 0.914562
vt 0.522644 0.909406
vt 0.521912 0.904278
vt 0.521068 0.899174
vt 0.520185 0.894035
vt 0.519366 0.888821
vt 0.028848 0.872541
vt 0.023968 0.874562
vt 0.023968 0.867661
vt 0.030869 0.867661
vt 0.028848 0.862782
vt 0.023968 0.860761
vt 0.019088 0.862782
vt 0.017067 0.867661
vt 0.019088 0.872541
vt 0.287420 0.855115
vt 0.292603 0.857269
vt 0.294736 0.862452
vt 0.287420 0.862238
vt 0.292583 0.867616
vt 0.287420 0.869749
vt 0.282256 0.867616
vt 0.280103 0.862452
vt 0.282236 0.857269
vt 0.543791 0.923089
vt 0.543983 0.928409
vt 0.543998 0.917668
vt 0.544117 0.912160
vt 0.543720 0.906640
vt 0.542656 0.901231
vt 0.541121 0.895997
vt 0.539548 0.890864
vt 0.538390 0.885687
vt 0.570471 0.930671
vt 0.569843 0.925405
vt 0.591189 0.924156
vt 0.591449 0.929427
vt 0.568780 0.920150
vt 0.590886 0.918958
vt 0.567759 0.914808
vt 0.590614 0.913803
vt 0.567234 0.909342
vt 0.590421 0.908635
vt 0.567398 0.903833
vt 0.590318 0.903456
vt 0.568083 0.898385
vt 0.590286 0.898273
vt 0.568839 0.893022
vt 0.590282 0.893045
vt 0.569170 0.887710
vt 0.590245 0.887762
vt 0.612976 0.923585
vt 0.612978 0.928871
vt 0.613034 0.918348
vt 0.613060 0.913152
vt 0.612979 0.907963
vt 0.612762 0.902786
vt 0.612431 0.897624
vt 0.612065 0.892423
vt 0.611770 0.887153
vt 0.324010 0.876002
vt 0.319131 0.878023
vt 0.319130 0.871122
vt 0.326031 0.871122
vt 0.324010 0.866243
vt 0.319130 0.864222
vt 0.314251 0.866243
vt 0.312230 0.871122
vt 0.314251 0.876002
vt 0.041451 0.858611
vt 0.046635 0.860765
vt 0.048767 0.865948
vt 0.041451 0.865734
vt 0.046615 0.871112
vt 0.041451 0.873245
vt 0.036287 0.871112
vt 0.034134 0.865948
vt 0.036267 0.860765
vt 0.632657 0.923685
vt 0.632318 0.928998
vt 0.633403 0.918311
vt 0.634071 0.912843
vt 0.634226 0.907311
vt 0.633707 0.901823
vt 0.632700 0.896462
vt 0.631648 0.891198
vt 0.631011 0.885930
vt 0.203803 0.872314
vt 0.207521 0.868532
vt 0.221837 0.884415
vt 0.217885 0.887912
vt 0.210958 0.864418
vt 0.225706 0.880930
vt 0.214490 0.860282
vt 0.229559 0.877495
vt 0.218429 0.856456
vt 0.233473 0.874115
vt 0.222833 0.853141
vt 0.237451 0.870797
vt 0.227514 0.850271
vt 0.241477 0.867533
vt 0.232172 0.847509
vt 0.245557 0.864262
vt 0.236525 0.844447
vt 0.249657 0.860932
vt 0.235899 0.901065
vt 0.231774 0.904371
vt 0.240024 0.897838
vt 0.244096 0.894610
vt 0.248097 0.891304
vt 0.252002 0.887899
vt 0.255824 0.884414
vt 0.259656 0.880878
vt 0.263585 0.877354
vt 0.308951 0.871570
vt 0.304071 0.873591
vt 0.304071 0.866691
vt 0.310972 0.866691
vt 0.308951 0.861811
vt 0.304071 0.859790
vt 0.299192 0.861811
vt 0.297170 0.866691
vt 0.299192 0.871570
vt 0.007316 0.854219
vt 0.012500 0.856372
vt 0.014633 0.861556
vt 0.007316 0.861341
vt 0.012480 0.866720
vt 0.007316 0.868853
vt 0.002153 0.866720
vt 0.000000 0.861556
vt 0.002133 0.856372
vt 0.248122 0.916492
vt 0.243763 0.919547
vt 0.252783 0.913715
vt 0.257469 0.910819
vt 0.261885 0.907482
vt 0.265844 0.903647
vt 0.269400 0.899510
vt 0.272852 0.895399
vt 0.276565 0.891609
vt 0.158050 0.344129
vt 0.174482 0.033761
vt 0.216488 0.044152
vt 0.058237 0.854573
vt 0.016400 0.859548
vt 0.058273 0.784173
vt 0.049493 0.455743
vt 0.121774 0.481338
vt 0.118877 0.498512
vt 0.493237 0.177342
vt 0.457566 0.033543
vt 0.531353 0.107550
vt 0.120657 0.308638
vt 0.142491 0.067791
vt 0.113799 0.595268
vt 0.115554 0.546785
vt 0.152347 0.555393
vt 0.388439 0.247682
vt 0.394716 0.048718
vt 0.424831 0.244749
vt 0.082651 0.427754
vt 0.065888 0.445846
vt 0.073397 0.322878
vt 0.730912 0.513153
vt 0.699855 0.486675
vt 0.735291 0.447289
vt 0.042115 0.503254
vt 0.088925 0.539872
vt 0.535340 0.726878
vt 0.450101 0.756876
vt 0.509464 0.687013
vt 0.690860 0.163623
vt 0.666805 0.341401
vt 0.646104 0.158548
vt 0.480280 0.441840
vt 0.526822 0.415340
vt 0.477776 0.499785
vt 0.429712 0.363972
vt 0.429389 0.036112
vt 0.451429 0.273587
vt 0.623218 0.308700
vt 0.608493 0.849788
vt 0.632493 0.766259
vt 0.727196 0.868191
vt 0.818740 0.721492
vt 0.831275 0.848757
vt 0.796686 0.817695
vt 0.865815 0.695432
vt 0.891106 0.767119
vt 0.765831 0.466592
vt 0.384420 0.890502
vt 0.395943 0.944120
vt 0.363551 0.924073
vt 0.209075 0.361860
vt 0.260827 0.311000
vt 0.191647 0.692083
vt 0.227818 0.668601
vt 0.236392 0.772881
vt 0.151441 0.892492
vt 0.097043 0.909452
vt 0.105061 0.866307
vt 0.939425 0.889959
vt 0.917703 0.854645
vt 0.978819 0.879244
vt 0.781991 0.305832
vt 0.819355 0.308748
vt 0.820613 0.352663
vt 0.469680 0.622702
vt 0.420919 0.668181
vt 0.428907 0.528465
vt 0.036023 0.359019
vt 0.398657 0.465314
vt 0.390203 0.285693
vt 0.519928 0.861119
vt 0.581509 0.729283
vt 0.349672 0.143521
vt 0.345071 0.075593
vt 0.910416 0.916336
vt 0.852713 0.896732
vt 0.486091 0.279791
vt 0.539372 0.265240
vt 0.102517 0.448232
vt 0.099868 0.315222
vt 0.463260 0.896989
vt 0.430986 0.934692
vt 0.409082 0.898515
vt 0.797446 0.573821
vt 0.846343 0.537431
vt 0.270532 0.659557
vt 0.310462 0.573759
vt 0.272080 0.848435
vt 0.362070 0.465423
vt 0.296497 0.478982
vt 0.324793 0.337986
vt 0.299451 0.144976
vt 0.295970 0.086941
vt 0.070828 0.730313
vt 0.112984 0.717050
vt 0.114304 0.785210
vt 0.191393 0.815356
vt 0.192557 0.746608
vt 0.788007 0.350472
vt 0.719285 0.340439
vt 0.705783 0.203581
vt 0.752076 0.298449
vt 0.608250 0.464787
vt 0.612901 0.369124
vt 0.644179 0.398982
vt 0.082688 0.451396
vt 0.521778 0.526286
vt 0.560966 0.423409
vt 0.000746 0.578757
vt 0.035500 0.594548
vt 0.000000 0.634875
vt 0.121738 0.528166
vt 0.128735 0.506356
vt 0.509253 0.774085
vt 0.479917 0.826801
vt 0.472868 0.850786
vt 0.426605 0.866503
vt 0.444089 0.815723
vt 0.404782 0.796729
vt 0.380067 0.865780
vt 0.351757 0.847912
vt 0.315469 0.849552
vt 0.322367 0.649523
vt 0.122676 0.954309
vt 0.149751 0.912457
vt 0.030938 0.486507
vt 0.264906 0.013607
vt 0.746249 0.865685
vt 0.679958 0.789953
vt 0.755571 0.735440
vt 0.051942 0.547261
vt 0.051501 0.535627
vt 0.606841 0.188754
vt 0.581048 0.229025
vt 0.614592 0.143105
vt 0.610789 0.036525
vt 0.652397 0.035186
vt 0.884437 0.954755
vt 0.986208 0.947282
vt 0.922126 0.968281
vt 0.956361 0.944620
vt 0.747665 0.071425
vt 0.698238 0.107134
vt 0.704993 0.049801
vt 0.651476 0.000711
vt 0.568577 0.014222
vt 0.602857 0.327838
vt 0.552436 0.348449
vt 0.574935 0.282661
vt 0.117895 0.838492
vt 0.178639 0.847592
vt 0.136784 0.867454
vt 0.146080 0.749192
vt 0.164019 0.835411
vt 0.066190 0.557456
vt 0.056828 0.571682
vt 0.028075 0.565896
vt 0.077760 0.564233
vt 0.081332 0.649424
vt 0.291942 0.404948
vt 0.294526 0.223651
vt 0.241425 0.381530
vt 0.256693 0.473995
vt 0.208569 0.461356
vt 0.755243 0.412588
vt 0.732464 0.387816
vt 0.821320 0.434410
vt 0.647869 0.354392
vt 0.181915 0.583299
vt 0.178095 0.637236
vt 0.618027 0.522029
vt 0.686055 0.009794
vt 0.341642 0.891320
vt 0.444546 0.463308
vt 0.822624 0.473242
vt 0.856671 0.466331
vt 0.893540 0.558594
vt 0.179695 0.464920
vt 0.141180 0.455440
vt 0.895458 0.631851
vt 0.187783 0.895304
vt 0.178666 0.935736
vt 0.473273 0.685316
vt 0.570041 0.039136
vt 0.573843 0.107528
vt 0.767169 0.527678
vt 0.761832 0.551922
vt 0.233096 0.633020
vt 0.509112 0.293527
vt 0.473146 0.330952
vt 0.059601 0.866436
vt 0.083513 0.852573
vt 0.693677 0.346414
vt 0.977910 0.912676
vt 0.007903 0.715941
vt 0.724861 0.142862
vt 0.447361 0.796157
vt 0.394959 0.673488
vt 0.408361 0.670960
vt 0.351012 0.007159
vt 0.423135 0.006176
vt 0.129477 0.521940
vt 0.764002 0.649837
vt 0.752584 0.616786
vt 0.151037 0.971857
vt 0.041680 0.315395
vt 0.040897 0.669685
vt 0.728851 0.887143
vt 0.620734 0.869110
vt 0.117696 0.652892
vt 0.567324 0.368775
vt 0.550205 0.352765
vt 0.706985 0.429577
vt 0.686320 0.399828
vt 0.401228 0.537931
vt 0.480554 0.418126
vt 0.433402 0.507891
vt 0.517524 0.368627
vt 0.491520 0.369049
vt 0.847337 0.922396
vt 0.527674 0.026510
vt 0.360645 0.250141
vt 0.404846 0.857354
vt 0.578897 0.552115
vt 0.081252 0.960911
vt 0.070066 0.925948
vt 0.204359 0.564059
vt 0.269873 0.567891
vt 0.226052 0.574300
vt 0.741170 0.662575
vt 0.722637 0.645115
vt 0.111442 0.534473
vt 0.098856 0.544602
vt 0.083666 0.554914
vt 0.000388 0.356912
vt 0.020803 0.364276
vt 0.038532 0.440660
vt 0.882599 0.973993
vt 0.634104 0.484829
vt 0.658849 0.508324
vt 0.922875 0.940276
vt 0.300608 -0.000716
vt 0.216455 0.007159
vt 0.912182 0.668960
vt 0.902448 0.774750
vt 0.898434 0.688765
vt 0.909001 0.559161
vt 0.367263 0.804681
vt 0.155491 0.693377
vt 0.141034 0.676200
vt 0.459419 0.931460
vt 0.326140 0.481164
vt 0.689046 0.894228
vt 0.609971 0.879942
vt 0.543727 0.874067
vt 0.767261 0.575474
vt 0.515556 0.001629
vt 0.513558 0.663922
vt 0.498107 0.643328
vt 0.849715 0.856752
vt 0.150657 0.026387
vt 0.118753 0.100560
vt 0.124269 0.024493
vt 0.012045 0.555476
vt 0.739796 0.014446
vt 0.530674 0.387551
vt 0.548801 0.888386
vt 0.497328 0.863352
vt 0.873297 0.469416
vt 0.029976 0.516509
vt 0.331580 0.851105
vt 0.329297 0.903016
vt 0.656419 0.341688
vt 0.498793 0.623042
vt 0.537893 0.545923
vt 0.126180 0.986120
vt 0.094441 0.996653
vt 0.938939 0.918895
vt 0.436790 0.806199
vt 0.386522 0.763279
vt 0.341061 0.040484
vt 0.303512 0.015481
vt 0.133121 0.816384
vt 0.328188 0.864764
vt 0.425860 0.958417
vt 0.784691 0.890858
vt 0.720278 0.945642
vt 0.546147 0.301084
vt 0.917054 0.833812
vt 0.871320 0.861376
vt 0.879337 0.854460
vt 0.953730 0.972051
vt 0.921156 0.984040
vt 0.108864 0.459210
vt 0.154646 0.832540
vt 0.353970 0.934614
vt 0.922496 0.762413
vt 0.549361 0.011618
vt 0.710155 0.016006
vt 0.758016 0.820873
vt 0.200078 0.880560
vt 0.196331 0.929220
vt 0.186680 0.550723
vt 0.184047 0.713857
vt 0.905063 0.979052
vt 0.066020 0.447106
vt 0.994625 0.887922
vt 1.000000 0.915597
vt 0.750591 0.348133
vt 0.978909 0.862266
vt 0.619093 0.172190
vt 0.040433 0.549997
vt 0.110818 0.301673
vt 0.479964 0.882106
vt 0.605743 0.552410
vt 0.929433 0.705854
vt 0.029115 0.497569
vt 0.052206 0.892321
vt 0.227104 0.840763
vt 0.058937 0.936598
vt 0.188635 0.849590
vt 0.012890 0.456790
s 1
usemtl candles
f 1/1/1 2/2/2 9/3/3
f 1/1/1 9/3/3 10/4/4
f 2/2/2 3/5/5 11/6/6
f 2/2/2 11/6/6 9/3/3
f 3/5/5 4/7/7 12/8/8
f 3/5/5 12/8/8 11/6/6
f 4/7/7 5/9/9 13/10/10
f 4/7/7 13/10/10 12/8/8
f 5/9/9 6/11/11 14/12/12
f 5/9/9 14/12/12 13/10/10
f 6/11/11 7/13/13 15/14/14
f 6/11/11 15/14/14 14/12/12
f 7/13/13 8/15/15 16/16/16
f 7/13/13 16/16/16 15/14/14
f 8/15/15 1/17/1 10/18/4
f 8/15/15 10/18/4 16/16/16
f 10/4/4 9/3/3 17/19/17
f 10/4/4 17/19/17 18/20/18
f 9/3/3 11/6/6 19/21/19
f 9/3/3 19/21/19 17/19/17
f 11/6/6 12/8/8 20/22/20
f 11/6/6 20/22/20 19/21/19
f 12/8/8 13/10/10 21/23/21
f 12/8/8 21/23/21 20/22/20
f 13/10/10 14/12/12 22/24/22
f 13/10/10 22/24/22 21/23/21
f 14/12/12 15/14/14 23/25/23
f 14/12/12 23/25/23 22/24/22
f 15/14/14 16/16/16 24/26/24
f 15/14/14 24/26/24 23/25/23
f 16/16/16 10/18/4 18/27/18
f 16/16/16 18/27/18 24/26/24
f 2/28/25 1/29/26 25/30/26
f 2/28/25 25/30/26 3/31/26
f 4/32/27 3/31/26 25/30/26
f 4/32/27 25/30/26 5/33/26
f 6/34/28 5/33/26 25/30/26
f 6/34/28 25/30/26 7/35/26
f 8/36/26 7/35/26 25/30/26
f 8/36/26 25/30/26 1/29/26
f 26/37/29 27/38/30 28/39/31
f 26/37/29 28/39/31 29/40/32
f 28/39/31 30/41/33 31/42/34
f 28/39/31 31/42/34 29/40/32
f 31/42/34 32/43/35 33/44/36
f 31/42/34 33/44/36 29/40/32
f 33/44/36 34/45/37 26/37/29
f 33/44/36 26/37/29 29/40/32
f 18/20/18 17/19/17 27/46/38
f 18/20/18 27/46/38 26/47/39
f 17/19/17 19/21/19 28/48/40
f 17/19/17 28/48/40 27/46/38
f 19/21/19 20/22/20 30/49/41
f 19/21/19 30/49/41 28/48/40
f 20/22/20 21/23/21 31/50/42
f 20/22/20 31/50/42 30/49/41
f 21/23/21 22/24/22 32/51/43
f 21/23/21 32/51/43 31/50/42
f 22/24/22 23/25/23 33/52/44
f 22/24/22 33/52/44 32/51/43
f 23/25/23 24/26/24 34/53/45
f 23/25/23 34/53/45 33/52/44
f 24/26/24 18/27/18 26/54/39
f 24/26/24 26/54/39 34/53/45
f 35/55/46 36/56/47 43/57/48
f 35/55/46 43/57/48 44/58/49
f 36/56/47 37/59/50 45/60/51
f 36/56/47 45/60/51 43/57/48
f 37/59/50 38/61/52 46/62/53
f 37/59/50 46/62/53 45/60/51
f 38/61/52 39/63/54 47/64/55
f 38/61/52 47/64/55 46/62/53
f 39/63/54 40/65/56 48/66/57
f 39/63/54 48/66/57 47/64/55
f 40/65/56 41/67/58 49/68/59
f 40/65/56 49/68/59 48/66/57
f 41/67/58 42/69/60 50/70/61
f 41/67/58 50/70/61 49/68/59
f 42/69/60 35/71/46 44/72/49
f 42/69/60 44/72/49 50/70/61
f 44/58/49 43/57/48 51/73/62
f 44/58/49 51/73/62 52/74/63
f 43/57/48 45/60/51 53/75/64
f 43/57/48 53/75/64 51/73/62
f 45/60/51 46/62/53 54/76/65
f 45/60/51 54/76/65 53/75/64
f 46/62/53 47/64/55 55/77/66
f 46/62/53 55/77/66 54/76/65
f 47/64/55 48/66/57 56/78/67
f 47/64/55 56/78/67 55/77/66
f 48/66/57 49/68/59 57/79/68
f 48/66/57 57/79/68 56/78/67
f 49/68/59 50/70/61 58/80/69
f 49/68/59 58/80/69 57/79/68
f 50/70/61 44/72/49 52/81/63
f 50/70/61 52/81/63 58/80/69
f 36/82/70 35/83/70 59/84/70
f 36/82/70 59/84/70 37/85/70
f 38/86/71 37/85/70 59/84/70
f 38/86/71 59/84/70 39/87/71
f 40/88/71 39/87/71 59/84/70
f 40/88/71 59/84/70 41/89/70
f 42/90/70 41/89/70 59/84/70
f 42/90/70 59/84/70 35/83/70
f 60/91/72 61/92/73 62/93/74
f 60/91/72 62/93/74 63/94/75
f 62/93/74 64/95/76 65/96/77
f 62/93/74 65/96/77 63/94/75
f 65/96/77 66/97/78 67/98/79
f 65/96/77 67/98/79 63/94/75
f 67/98/79 68/99/80 60/91/72
f 67/98/79 60/91/72 63/94/75
f 52/74/63 51/73/62 61/100/81
f 52/74/63 61/100/81 60/101/82
f 51/73/62 53/75/64 62/102/83
f 51/73/62 62/102/83 61/100/81
f 53/75/64 54/76/65 64/103/84
f 53/75/64 64/103/84 62/102/83
f 54/76/65 55/77/66 65/104/85
f 54/76/65 65/104/85 64/103/84
f 55/77/66 56/78/67 66/105/86
f 55/77/66 66/105/86 65/104/85
f 56/78/67 57/79/68 67/106/87
f 56/78/67 67/106/87 66/105/86
f 57/79/68 58/80/69 68/107/88
f 57/79/68 68/107/88 67/106/87
f 58/80/69 52/81/63 60/108/82
f 58/80/69 60/108/82 68/107/88
f 69/109/89 70/110/90 77/111/91
f 69/109/89 77/111/91 78/112/92
f 70/110/90 71/113/93 79/114/94
f 70/110/90 79/114/94 77/111/91
f 71/113/93 72/115/95 80/116/96
f 71/113/93 80/116/96 79/114/94
f 72/115/95 73/117/97 81/118/98
f 72/115/95 81/118/98 80/116/96
f 73/117/97 74/119/99 82/120/100
f 73/117/97 82/120/100 81/118/98
f 74/119/99 75/121/101 83/122/102
f 74/119/99 83/122/102 82/120/100
f 75/121/101 76/123/103 84/124/104
f 75/121/101 84/124/104 83/122/102
f 76/123/103 69/125/89 78/126/92
f 76/123/103 78/126/92 84/124/104
f 78/112/92 77/111/91 85/127/105
f 78/112/92 85/127/105 86/128/106
f 77/111/91 79/114/94 87/129/107
f 77/111/91 87/129/107 85/127/105
f 79/114/94 80/116/96 88/130/108
f 79/114/94 88/130/108 87/129/107
f 80/116/96 81/118/98 89/131/109
f 80/116/96 89/131/109 88/130/108
f 81/118/98 82/120/100 90/132/110
f 81/118/98 90/132/110 89/131/109
f 82/120/100 83/122/102 91/133/111
f 82/120/100 91/133/111 90/132/110
f 83/122/102 84/124/104 92/134/112
f 83/122/102 92/134/112 91/133/111
f 84/124/104 78/126/92 86/135/106
f 84/124/104 86/135/106 92/134/112
f 70/136/113 69/137/113 93/138/114
f 70/136/113 93/138/114 71/139/114
f 72/140/115 71/139/114 93/138/114
f 72/140/115 93/138/114 73/141/114
f 74/142/116 73/141/114 93/138/114
f 74/142/116 93/138/114 75/143/114
f 76/144/113 75/143/114 93/138/114
f 76/144/113 93/138/114 69/137/113
f 94/145/117 95/146/118 96/147/119
f 94/145/117 96/147/119 97/148/120
f 96/147/119 98/149/121 99/150/122
f 96/147/119 99/150/122 97/148/120
f 99/150/122 100/151/123 101/152/124
f 99/150/122 101/152/124 97/148/120
f 101/152/124 102/153/121 94/145/117
f 101/152/124 94/145/117 97/148/120
f 86/128/106 85/127/105 95/154/125
f 86/128/106 95/154/125 94/155/126
f 85/127/105 87/129/107 96/156/127
f 85/127/105 96/156/127 95/154/125
f 87/129/107 88/130/108 98/157/128
f 87/129/107 98/157/128 96/156/127
f 88/130/108 89/131/109 99/158/129
f 88/130/108 99/158/129 98/157/128
f 89/131/109 90/132/110 100/159/130
f 89/131/109 100/159/130 99/158/129
f 90/132/110 91/133/111 101/160/131
f 90/132/110 101/160/131 100/159/130
f 91/133/111 92/134/112 102/161/132
f 91/133/111 102/161/132 101/160/131
f 92/134/112 86/135/106 94/162/126
f 92/134/112 94/162/126 102/161/132
f 148/163/133 270/164/134 201/165/135
f 326/166/136 117/167/137 285/168/138
f 109/169/139 234/170/140 259/171/141
f 153/172/142 159/173/143 173/174/144
f 148/163/133 294/175/145 330/176/146
f 168/177/147 210/178/148 301/179/149
f 174/180/150 190/181/151 258/182/152
f 319/183/153 191/184/154 265/185/155
f 301/186/149 210/187/148 333/188/156
f 314/189/157 109/169/139 180/190/158
f 183/191/159 289/192/160 324/193/161
f 109/169/139 259/171/141 180/190/158
f 137/194/162 231/195/163 279/196/164
f 268/197/165 295/198/166 199/199/167
f 181/200/168 120/201/169 306/202/170
f 231/195/163 309/203/171 279/196/164
f 282/204/172 166/205/173 165/206/174
f 220/207/175 198/208/176 339/209/177
f 220/207/175 240/210/178 298/211/179
f 333/188/156 243/212/180 301/186/149
f 130/213/181 193/214/182 206/215/183
f 223/216/184 201/165/135 142/217/185
f 264/218/186 299/219/187 328/220/188
f 150/221/189 177/222/190 287/223/191
f 315/224/192 246/225/193 276/226/194
f 233/227/195 163/228/196 232/229/197
f 208/230/198 158/231/199 224/232/200
f 208/230/198 224/232/200 199/199/167
f 265/185/155 191/184/154 232/233/197
f 181/200/168 146/234/201 297/235/202
f 166/205/173 110/236/203 211/237/204
f 190/181/151 227/238/205 322/239/206
f 246/225/193 187/240/207 226/241/208
f 214/242/209 173/174/144 229/243/210
f 122/244/211 131/245/212 148/163/133
f 296/246/213 300/247/214 247/248/215
f 196/249/216 147/250/217 220/207/175
f 245/251/218 123/252/219 116/253/220
f 241/254/221 108/255/222 195/256/223
f 227/238/205 239/257/224 321/258/225
f 141/259/226 249/260/227 217/261/228
f 328/220/188 337/262/229 307/263/230
f 233/227/195 232/229/197 316/264/231
f 275/265/232 311/266/233 117/267/137
f 253/268/234 340/269/235 143/270/236
f 271/271/237 234/170/140 109/169/139
f 145/272/238 261/273/239 253/268/234
f 202/274/240 164/275/241 304/276/242
f 194/277/243 180/190/158 215/278/244
f 289/192/160 320/279/245 235/280/246
f 228/281/247 175/282/248 212/283/249
f 122/284/211 302/285/250 274/286/251
f 218/287/252 116/253/220 200/288/253
f 209/289/254 177/222/190 257/290/255
f 240/210/178 220/207/175 147/250/217
f 260/291/256 109/169/139 314/189/157
f 142/217/185 201/165/135 188/292/257
f 308/293/258 255/294/259 133/295/260
f 180/190/158 244/296/261 312/297/262
f 298/211/179 198/208/176 220/207/175
f 336/298/263 186/299/264 173/174/144
f 237/300/265 273/301/266 157/302/267
f 226/241/208 187/240/207 267/303/268
f 155/304/269 334/305/270 277/306/271
f 304/307/242 221/308/272 250/309/273
f 263/310/274 157/302/267 103/311/275
f 121/312/276 172/313/277 291/314/278
f 186/299/264 336/298/263 121/312/276
f 107/315/279 139/316/280 329/317/281
f 327/318/282 238/319/283 217/261/228
f 339/209/177 198/208/176 308/293/258
f 180/190/158 230/320/284 244/296/261
f 325/321/285 164/275/241 290/322/286
f 128/323/287 168/177/147 236/324/288
f 195/256/223 266/325/289 160/326/290
f 269/327/291 222/328/292 115/329/293
f 170/330/294 280/331/295 260/332/256
f 340/269/235 207/333/296 143/270/236
f 327/318/282 217/261/228 249/260/227
f 256/334/297 192/335/298 168/177/147
f 253/268/234 176/336/299 145/272/238
f 263/310/274 303/337/300 157/302/267
f 310/338/301 274/286/251 130/213/181
f 119/339/302 146/234/201 181/200/168
f 182/340/303 170/330/294 114/341/304
f 147/250/217 114/341/304 262/342/305
f 223/216/184 148/163/133 201/165/135
f 228/343/247 212/344/249 148/163/133
f 180/190/158 312/297/262 314/189/157
f 262/342/305 292/345/306 147/250/217
f 252/346/307 329/317/281 139/316/280
f 281/347/308 209/289/254 257/290/255
f 208/230/198 197/348/309 158/231/199
f 248/349/310 185/350/311 173/174/144
f 152/351/312 182/340/303 284/352/313
f 192/335/298 256/334/297 178/353/314
f 317/354/315 272/355/316 214/242/209
f 272/355/316 181/200/168 306/202/170
f 177/222/190 154/356/317 287/223/191
f 154/357/317 285/168/138 217/261/228
f 311/266/233 275/265/232 126/358/318
f 155/304/269 277/306/271 318/359/319
f 156/360/320 285/168/138 117/167/137
f 304/307/242 117/267/137 288/361/321
f 250/309/273 221/308/272 157/302/267
f 279/196/164 157/302/267 137/194/162
f 197/348/309 289/192/160 158/231/199
f 129/362/322 234/363/140 286/364/323
f 166/365/173 211/366/204 190/181/151
f 306/202/170 120/201/169 159/173/143
f 239/257/224 142/217/185 188/292/257
f 266/325/289 142/217/185 160/326/290
f 215/278/244 204/367/324 194/277/243
f 282/204/172 110/236/203 166/205/173
f 196/249/216 179/368/325 278/369/326
f 270/164/134 148/163/133 330/176/146
f 209/289/254 281/347/308 131/370/212
f 265/185/155 232/233/197 163/371/196
f 141/259/226 156/360/320 283/372/327
f 236/324/288 164/275/241 325/321/285
f 140/373/328 161/374/329 165/206/174
f 198/208/176 140/373/328 308/293/258
f 255/294/259 165/206/174 166/205/173
f 322/239/206 227/238/205 321/258/225
f 328/220/188 245/251/218 116/253/220
f 252/346/307 281/347/308 257/290/255
f 293/375/330 236/324/288 168/177/147
f 168/177/147 192/335/298 293/375/330
f 169/376/331 203/377/332 207/333/296
f 295/198/166 261/273/239 145/272/238
f 210/187/148 313/378/333 333/188/156
f 280/331/295 170/330/294 242/379/334
f 118/380/335 224/232/200 158/231/199
f 271/381/237 171/382/336 118/380/335
f 226/383/208 104/384/337 317/354/315
f 267/303/268 104/385/337 226/241/208
f 173/174/144 151/386/338 248/349/310
f 173/174/144 159/173/143 151/386/338
f 174/180/150 227/238/205 190/181/151
f 297/235/202 146/234/201 124/387/339
f 296/246/213 247/248/215 175/282/248
f 122/284/211 331/388/340 302/285/250
f 176/336/299 303/389/300 145/272/238
f 164/275/241 202/274/240 290/322/286
f 233/390/195 177/222/190 209/289/254
f 177/222/190 335/391/341 154/356/317
f 178/353/314 256/334/297 284/392/313
f 278/393/326 178/353/314 105/394/342
f 162/395/343 123/396/219 179/368/325
f 133/295/260 162/395/343 179/368/325
f 332/397/344 305/398/345 180/190/158
f 230/320/284 180/190/158 225/399/346
f 181/400/168 112/401/347 338/402/348
f 181/403/168 104/385/337 267/303/268
f 284/352/313 182/340/303 147/250/217
f 147/250/217 182/340/303 114/341/304
f 211/237/204 183/191/159 324/193/161
f 211/237/204 110/236/203 183/191/159
f 176/336/299 184/404/349 128/405/287
f 210/187/148 184/404/349 313/378/333
f 185/350/311 273/301/266 237/300/265
f 185/350/311 336/298/263 173/174/144
f 121/312/276 291/314/278 186/299/264
f 173/174/144 186/299/264 229/243/210
f 187/240/207 246/225/193 315/224/192
f 213/406/350 267/303/268 187/240/207
f 321/258/225 239/257/224 188/292/257
f 255/407/259 188/292/257 133/408/260
f 189/409/351 134/410/352 149/411/353
f 189/409/351 292/345/306 132/412/354
f 190/181/151 120/201/169 258/182/152
f 190/181/151 211/366/204 120/201/169
f 191/184/154 338/402/348 112/401/347
f 122/284/211 274/286/251 191/413/154
f 219/414/355 125/415/356 192/335/298
f 264/218/186 192/335/298 299/219/187
f 296/246/213 222/416/292 300/247/214
f 193/417/182 108/255/222 241/254/221
f 161/374/329 305/418/345 332/419/344
f 161/374/329 332/419/344 254/420/357
f 195/256/223 160/326/290 227/238/205
f 241/254/221 195/256/223 124/387/339
f 284/352/313 147/250/217 196/249/216
f 196/249/216 278/369/326 105/421/342
f 159/173/143 324/422/161 151/386/338
f 151/423/338 197/348/309 323/424/358
f 198/208/176 113/425/359 140/373/328
f 113/425/359 198/208/176 298/211/179
f 145/272/238 208/230/198 199/199/167
f 199/199/167 295/198/166 145/272/238
f 116/253/220 123/252/219 200/288/253
f 162/426/343 200/427/253 123/428/219
f 188/292/257 201/165/135 133/408/260
f 201/165/135 270/164/134 133/408/260
f 202/274/240 111/429/360 290/322/286
f 304/307/242 250/309/273 202/430/240
f 203/377/332 169/376/331 127/431/361
f 127/431/361 268/197/165 271/381/237
f 254/420/357 194/432/243 204/433/324
f 235/280/246 320/279/245 110/236/203
f 132/412/354 114/341/304 205/434/362
f 312/297/262 132/435/354 314/189/157
f 119/436/302 310/338/301 146/437/201
f 241/254/221 124/387/339 146/234/201
f 242/379/334 207/333/296 280/331/295
f 203/377/332 109/438/139 207/333/296
f 197/348/309 208/230/198 323/424/358
f 103/439/275 208/230/198 263/440/274
f 265/441/155 163/442/196 209/289/254
f 233/390/195 209/289/254 163/442/196
f 210/178/148 168/177/147 128/323/287
f 128/405/287 184/404/349 210/187/148
f 211/366/204 324/422/161 159/173/143
f 159/173/143 120/201/169 211/366/204
f 175/282/248 122/284/211 212/283/249
f 148/163/133 212/344/249 122/244/211
f 136/443/363 318/359/319 277/306/271
f 136/443/363 213/406/350 187/240/207
f 153/172/142 173/174/144 214/242/209
f 153/172/142 306/202/170 159/173/143
f 215/444/244 129/362/322 204/433/324
f 259/445/141 234/363/140 129/362/322
f 216/446/364 166/365/173 190/181/151
f 216/446/364 106/447/365 166/365/173
f 217/261/228 107/448/279 154/357/317
f 107/448/279 217/261/228 238/319/283
f 116/253/220 218/287/252 131/449/212
f 131/245/212 294/175/145 148/163/133
f 219/414/355 192/335/298 264/218/186
f 327/318/282 307/263/230 238/319/283
f 220/207/175 179/368/325 196/249/216
f 220/207/175 133/295/260 179/368/325
f 157/302/267 221/308/272 137/194/162
f 311/266/233 288/361/321 117/267/137
f 222/328/292 269/327/291 266/325/289
f 300/247/214 222/416/292 108/450/222
f 223/216/184 228/343/247 148/163/133
f 223/216/184 269/327/291 115/329/293
f 171/382/336 224/232/200 118/380/335
f 268/197/165 199/199/167 224/232/200
f 140/373/328 225/451/346 180/452/158
f 140/373/328 113/425/359 225/451/346
f 138/453/366 172/313/277 226/383/208
f 121/454/276 226/241/208 172/455/277
f 227/238/205 174/180/150 124/387/339
f 124/387/339 195/256/223 227/238/205
f 228/343/247 223/216/184 115/329/293
f 175/282/248 228/281/247 296/246/213
f 186/299/264 291/314/278 229/243/210
f 138/453/366 226/383/208 317/354/315
f 225/451/346 113/425/359 230/456/284
f 113/425/359 134/410/352 230/456/284
f 318/359/319 315/224/192 276/226/194
f 126/358/318 231/195/163 137/194/162
f 191/184/154 112/401/347 232/233/197
f 334/305/270 316/457/231 232/458/197
f 233/390/195 335/391/341 177/222/190
f 316/264/231 117/267/137 233/227/195
f 286/364/323 234/363/140 118/380/335
f 234/170/140 271/271/237 118/459/335
f 235/280/246 204/433/324 129/362/322
f 204/433/324 235/280/246 110/236/203
f 141/259/226 283/372/327 236/324/288
f 293/375/330 141/259/226 236/324/288
f 237/300/265 157/302/267 279/196/164
f 237/300/265 336/298/263 185/350/311
f 107/315/279 238/460/283 139/316/280
f 238/319/283 307/263/230 337/262/229
f 142/217/185 239/257/224 160/326/290
f 227/238/205 160/326/290 239/257/224
f 240/210/178 149/411/353 298/211/179
f 292/345/306 240/210/178 147/250/217
f 193/214/182 241/461/221 206/215/183
f 241/461/221 146/437/201 206/215/183
f 184/404/349 143/270/236 242/379/334
f 207/333/296 242/379/334 143/270/236
f 243/212/180 170/330/294 182/340/303
f 301/186/149 243/212/180 182/340/303
f 244/462/261 134/410/352 189/409/351
f 230/456/284 134/410/352 244/462/261
f 123/252/219 245/251/218 178/353/314
f 328/220/188 299/219/187 245/251/218
f 246/225/193 226/241/208 121/454/276
f 276/226/194 246/225/193 121/454/276
f 175/282/248 247/248/215 130/213/181
f 130/213/181 247/248/215 193/214/182
f 273/301/266 103/311/275 157/302/267
f 323/463/358 248/349/310 151/386/338
f 249/260/227 141/259/226 293/375/330
f 249/260/227 125/415/356 219/414/355
f 250/309/273 111/464/360 202/430/240
f 303/337/300 250/309/273 157/302/267
f 308/293/258 133/295/260 251/465/367
f 133/295/260 220/207/175 251/465/367
f 139/316/280 167/466/368 252/346/307
f 116/467/220 252/346/307 167/466/368
f 184/404/349 176/336/299 253/268/234
f 253/268/234 143/270/236 184/404/349
f 110/236/203 282/204/172 254/420/357
f 110/236/203 254/420/357 204/433/324
f 255/407/259 106/447/365 188/292/257
f 106/447/365 255/407/259 166/365/173
f 256/334/297 168/177/147 301/179/149
f 284/392/313 256/334/297 152/468/312
f 257/290/255 150/221/189 252/346/307
f 150/221/189 257/290/255 177/222/190
f 181/200/168 258/182/152 120/201/169
f 258/182/152 181/200/168 297/235/202
f 215/444/244 259/445/141 129/362/322
f 180/190/158 259/171/141 215/278/244
f 170/330/294 260/332/256 114/341/304
f 114/341/304 260/332/256 205/434/362
f 261/273/239 295/198/166 169/376/331
f 169/376/331 253/268/234 261/273/239
f 292/345/306 262/342/305 132/412/354
f 114/341/304 132/412/354 262/342/305
f 208/230/198 145/272/238 263/440/274
f 303/389/300 263/440/274 145/272/238
f 328/220/188 307/263/230 264/218/186
f 144/469/369 219/414/355 264/218/186
f 209/289/254 131/370/212 265/441/155
f 265/185/155 131/245/212 319/183/153
f 195/256/223 108/255/222 266/325/289
f 222/328/292 266/325/289 108/255/222
f 213/406/350 334/305/270 267/303/268
f 267/303/268 112/470/347 181/403/168
f 171/382/336 268/197/165 224/232/200
f 171/382/336 271/381/237 268/197/165
f 142/217/185 269/327/291 223/216/184
f 269/327/291 142/217/185 266/325/289
f 162/426/343 133/408/260 270/164/134
f 270/164/134 330/176/146 162/426/343
f 271/381/237 203/377/332 127/431/361
f 271/271/237 109/169/139 203/471/332
f 272/355/316 317/354/315 104/384/337
f 272/355/316 104/384/337 181/200/168
f 103/311/275 273/301/266 248/349/310
f 185/350/311 248/349/310 273/301/266
f 274/286/251 310/338/301 119/436/302
f 119/436/302 191/413/154 274/286/251
f 155/304/269 126/472/318 275/473/232
f 275/265/232 117/267/137 155/474/269
f 121/454/276 231/475/163 276/226/194
f 276/226/194 231/475/163 126/472/318
f 334/305/270 213/406/350 277/306/271
f 213/406/350 136/443/363 277/306/271
f 179/368/325 123/396/219 278/369/326
f 278/393/326 123/252/219 178/353/314
f 279/196/164 309/203/171 135/476/370
f 135/476/370 237/300/265 279/196/164
f 260/332/256 280/331/295 109/438/139
f 207/333/296 109/438/139 280/331/295
f 281/347/308 116/467/220 131/370/212
f 281/347/308 252/346/307 116/467/220
f 282/204/172 161/374/329 254/420/357
f 161/374/329 282/204/172 165/206/174
f 236/324/288 283/372/327 164/275/241
f 164/275/241 283/372/327 304/276/242
f 196/249/216 105/421/342 284/352/313
f 105/394/342 178/353/314 284/392/313
f 217/261/228 285/168/138 141/259/226
f 156/360/320 141/259/226 285/168/138
f 118/380/335 158/231/199 286/364/323
f 289/192/160 286/364/323 158/231/199
f 287/223/191 154/356/317 107/315/279
f 329/317/281 287/223/191 107/315/279
f 288/361/321 221/308/272 304/307/242
f 137/194/162 221/308/272 288/361/321
f 129/362/322 289/192/160 235/280/246
f 289/192/160 129/362/322 286/364/323
f 111/429/360 176/477/299 290/322/286
f 176/477/299 325/321/285 290/322/286
f 172/313/277 138/453/366 291/314/278
f 138/453/366 229/243/210 291/314/278
f 149/411/353 292/345/306 189/409/351
f 292/345/306 149/411/353 240/210/178
f 249/260/227 293/375/330 125/415/356
f 125/415/356 293/375/330 192/335/298
f 200/427/253 294/175/145 218/478/252
f 131/245/212 218/478/252 294/175/145
f 295/198/166 127/431/361 169/376/331
f 295/198/166 268/197/165 127/431/361
f 296/246/213 228/281/247 115/479/293
f 296/246/213 115/479/293 222/416/292
f 297/235/202 124/387/339 174/180/150
f 297/235/202 174/180/150 258/182/152
f 298/211/179 134/410/352 113/425/359
f 149/411/353 134/410/352 298/211/179
f 299/219/187 178/353/314 245/251/218
f 192/335/298 178/353/314 299/219/187
f 193/214/182 247/248/215 300/247/214
f 300/247/214 108/450/222 193/214/182
f 301/179/149 152/468/312 256/334/297
f 301/186/149 182/340/303 152/351/312
f 130/213/181 302/285/250 331/388/340
f 274/286/251 302/285/250 130/213/181
f 250/309/273 303/337/300 111/464/360
f 303/389/300 176/336/299 111/480/360
f 304/276/242 283/372/327 156/360/320
f 156/360/320 117/167/137 304/276/242
f 305/418/345 161/374/329 140/373/328
f 305/418/345 140/373/328 180/452/158
f 272/355/316 306/202/170 214/242/209
f 306/202/170 153/172/142 214/242/209
f 307/263/230 327/318/282 144/469/369
f 144/469/369 264/218/186 307/263/230
f 165/206/174 308/293/258 140/373/328
f 308/293/258 165/206/174 255/294/259
f 121/312/276 309/203/171 231/195/163
f 121/312/276 336/298/263 309/203/171
f 206/215/183 146/437/201 310/338/301
f 130/213/181 206/215/183 310/338/301
f 137/194/162 311/266/233 126/358/318
f 311/266/233 137/194/162 288/361/321
f 312/481/262 244/462/261 189/409/351
f 312/481/262 189/409/351 132/412/354
f 242/379/334 170/330/294 313/378/333
f 184/404/349 242/379/334 313/378/333
f 260/291/256 314/189/157 205/482/362
f 205/482/362 314/189/157 132/435/354
f 315/224/192 136/443/363 187/240/207
f 136/443/363 315/224/192 318/359/319
f 155/474/269 117/267/137 316/264/231
f 316/457/231 334/305/270 155/304/269
f 317/354/315 229/243/210 138/453/366
f 317/354/315 214/242/209 229/243/210
f 318/359/319 276/226/194 126/472/318
f 318/359/319 126/472/318 155/304/269
f 319/183/153 131/245/212 122/244/211
f 319/183/153 122/244/211 191/184/154
f 183/191/159 110/236/203 320/279/245
f 289/192/160 183/191/159 320/279/245
f 188/292/257 106/447/365 321/258/225
f 322/239/206 321/258/225 106/447/365
f 322/239/206 106/447/365 216/446/364
f 216/446/364 190/181/151 322/239/206
f 323/463/358 103/311/275 248/349/310
f 208/230/198 103/439/275 323/424/358
f 324/193/161 197/348/309 151/423/338
f 197/348/309 324/193/161 289/192/160
f 128/323/287 236/324/288 325/321/285
f 176/477/299 128/323/287 325/321/285
f 326/483/136 154/356/317 335/391/341
f 154/357/317 326/166/136 285/168/138
f 219/414/355 327/318/282 249/260/227
f 144/469/369 327/318/282 219/414/355
f 328/220/188 167/484/368 337/262/229
f 116/253/220 167/484/368 328/220/188
f 329/317/281 150/221/189 287/223/191
f 150/221/189 329/317/281 252/346/307
f 330/176/146 294/175/145 200/427/253
f 330/176/146 200/427/253 162/426/343
f 175/282/248 130/213/181 331/388/340
f 331/388/340 122/284/211 175/282/248
f 254/420/357 332/419/344 194/432/243
f 332/397/344 180/190/158 194/277/243
f 333/188/156 170/330/294 243/212/180
f 170/330/294 333/188/156 313/378/333
f 267/303/268 334/305/270 112/470/347
f 334/305/270 232/458/197 112/470/347
f 326/483/136 335/391/341 117/485/137
f 233/390/195 117/485/137 335/391/341
f 237/300/265 135/476/370 336/298/263
f 336/298/263 135/476/370 309/203/171
f 238/319/283 337/262/229 139/486/280
f 139/486/280 337/262/229 167/484/368
f 191/184/154 119/487/302 338/402/348
f 181/400/168 338/402/348 119/487/302
f 339/209/177 308/293/258 251/465/367
f 339/209/177 251/465/367 220/207/175
f 340/269/235 253/268/234 169/376/331
f 207/333/296 340/269/235 169/376/331
